<svg width="1049" height="245" fill="none" xmlns="http://www.w3.org/2000/svg"><rect y="7" width="232" height="232" rx="116" fill="#FA6757"/><path d="M98.688 158.904c-.29-11.43-4.52-21.45-10.46-31.07-6.75-10.92-10.9-22.66-8.58-35.85 3.42-19.41 20.78-31.65 42.31-29.8 17.28 1.48 31.64 17.59 31.93 35.64.19 11.69-3.54 22.22-9.99 31.69-6.06 8.9-10.02 18.47-9.42 29.39l-35.8-.01.01.01Z" fill="#FEFEFE"/><path d="M134.34 165.003H98.5l.04-4.97s25.75-.08 35.8.01v4.96Zm0 6H98.5l.04-4.97 35.8.01v4.96Z" fill="#FEF8F7"/><path d="M105.5 177.923v-5.906c4.697-.023 17.292-.023 22 0V178l-22-.077Z" fill="#FDFAF9"/><path d="M122.85 179c.01 1.23.02 3.67.04 4.9H110.5V179h12.35Z" fill="#FDF8F8"/><path d="M280.8 180V94.72h-30.996V74.384H338.2V94.72h-30.996V180H280.8Zm65.975 0V74.384h26.404v41.82h41.328v-41.82h26.404V180h-26.404v-41.82h-41.328V180h-26.404Zm107.549 0V74.384h26.404V180h-26.404Zm39.802 0V74.384h22.632l44.936 63.14v-63.14h26.568V180h-22.796l-44.936-62.976V180h-26.404Zm107.548 0V74.384h26.404v41l36.408-41h30.176l-37.72 43.132L696.958 180H668.75l-28.208-45.592-12.464 13.612V180h-26.404Zm102.626 0V74.384h69.044v7.38H713.32v41.82h54.284v7.216H713.32v41.984h60.024V180H704.3Zm82.167 0 40.016-105.616h11.48L877.815 180h-9.184l-11.644-30.832h-49.528L795.815 180h-9.348Zm22.96-38.212h45.428L832.059 81.6l-22.632 60.188Zm105.708 39.852c-12.683 0-22.906-1.531-30.668-4.592v-8.036c9.074 3.28 19.078 4.92 30.012 4.92 10.277 0 18.04-1.585 23.288-4.756 5.248-3.171 7.872-8.528 7.872-16.072 0-4.592-1.039-8.309-3.116-11.152-2.078-2.843-5.412-5.193-10.004-7.052-4.483-1.968-10.551-3.772-18.204-5.412-8.091-1.859-14.542-3.991-19.352-6.396-4.702-2.515-8.091-5.576-10.168-9.184-1.968-3.608-2.952-7.872-2.952-12.792 0-8.528 3.061-15.361 9.184-20.5 6.232-5.248 15.798-7.872 28.7-7.872 5.904 0 11.425.437 16.564 1.312 5.138.875 9.074 1.75 11.808 2.624v8.036c-7.872-2.733-16.728-4.1-26.568-4.1-9.95 0-17.603 1.64-22.96 4.92-5.248 3.17-7.872 8.364-7.872 15.58 0 4.045.874 7.38 2.624 10.004 1.858 2.515 4.974 4.647 9.348 6.396 4.373 1.749 10.386 3.553 18.04 5.412 8.637 1.968 15.361 4.373 20.172 7.216 4.92 2.733 8.418 6.013 10.496 9.84 2.077 3.717 3.116 8.091 3.116 13.12 0 9.403-3.335 16.509-10.004 21.32-6.67 4.811-16.455 7.216-29.356 7.216Zm77.699-1.64v-39.524l-37.556-66.092h9.348l32.8 58.22 32.804-58.22h9.34l-37.72 66.092V180h-9.016Z" fill="#fff"/></svg>